<svg width="50" height="52" viewBox="0 0 50 52" fill="none" xmlns="http://www.w3.org/2000/svg">
<g id="Icon / Folder">
<g id="Shadow" opacity="0.4" filter="url(#filter0_f_1_206)">
<ellipse cx="24.7845" cy="27.1894" rx="23.8194" ry="23.7908" fill="#3DD9B3"/>
</g>
<ellipse id="Ellipse" cx="24.7845" cy="23.7908" rx="23.8194" ry="23.7908" fill="#3DD9B3"/>
<g id="wechat-Icon">
<g id="wechat">
<path fill-rule="evenodd" clip-rule="evenodd" d="M21.7564 14.0635C17.3153 13.9982 13.625 17.1822 13.625 20.9374C13.625 23.1051 14.6699 24.9856 16.6927 26.3662C16.6927 26.3662 15.9513 28.7531 15.9619 28.801C15.9724 28.8489 16.1338 28.943 16.1899 28.9122C16.2461 28.8815 18.8698 27.355 18.8698 27.355C20.75 27.9847 21.897 27.8297 22.0928 27.8033C22.1064 27.8015 22.1154 27.8002 22.1197 27.7999C21.9191 27.2267 21.7876 26.3341 21.9373 25.4927C22.7212 21.0896 27.3417 19.72 29.8741 19.954C29.1748 16.7741 26.1373 14.1278 21.7564 14.0635ZM18.6696 17.6775C18.087 17.6775 17.6148 18.1383 17.6148 18.7068C17.6148 19.2753 18.087 19.7362 18.6696 19.7362C19.2521 19.7362 19.7245 19.2753 19.7245 18.7068C19.7245 18.1383 19.2521 17.6775 18.6696 17.6775ZM25.0554 17.6775C24.473 17.6775 24.0007 18.1383 24.0007 18.7068C24.0007 19.2753 24.473 19.7362 25.0554 19.7362C25.638 19.7362 26.1103 19.2753 26.1103 18.7068C26.1103 18.1383 25.6382 17.6775 25.0554 17.6775Z" fill="white"/>
<path fill-rule="evenodd" clip-rule="evenodd" d="M36.375 26.1627C36.375 22.9456 33.1863 20.4815 29.487 20.4815C25.57 20.4815 22.446 23.0013 22.446 26.2182C22.446 29.4409 25.4175 32.1089 29.4915 32.1307C30.3114 32.1352 31.5328 31.9295 32.3563 31.5939C32.3563 31.5939 34.325 32.7585 34.4353 32.75C34.5455 32.7413 34.602 32.6561 34.6064 32.5831C34.6108 32.5101 33.9791 30.6922 33.9791 30.6922C35.6696 29.4006 36.375 27.9773 36.375 26.1627ZM26.9089 23.1507C26.3935 23.1507 25.9756 23.5591 25.9756 24.063C25.9756 24.5667 26.3935 24.9752 26.9089 24.9752C27.4243 24.9752 27.8421 24.5668 27.8421 24.063C27.8421 23.5591 27.4243 23.1507 26.9089 23.1507ZM31.8992 23.1507C31.3838 23.1507 30.9659 23.5591 30.9659 24.063C30.9659 24.5667 31.3838 24.9752 31.8992 24.9752C32.4147 24.9752 32.8325 24.5668 32.8325 24.063C32.8325 23.5591 32.4147 23.1507 31.8992 23.1507Z" fill="white"/>
</g>
</g>
</g>
<defs>
<filter id="filter0_f_1_206" x="-8.03494" y="-5.60132" width="65.6389" height="65.5815" filterUnits="userSpaceOnUse" color-interpolation-filters="sRGB">
<feFlood flood-opacity="0" result="BackgroundImageFix"/>
<feBlend mode="normal" in="SourceGraphic" in2="BackgroundImageFix" result="shape"/>
<feGaussianBlur stdDeviation="4.5" result="effect1_foregroundBlur_1_206"/>
</filter>
</defs>
</svg>
